<svg xmlns="http://www.w3.org/2000/svg" width="35" height="28" fill="none"><path fill="#84D023" d="M34.185 4.132c-.858-.888-1.735-1.758-2.584-2.656a2.347 2.347 0 0 0-1.773-.813H10.966a1.245 1.245 0 0 0-.801.176 1.26 1.26 0 0 0-.522.637 2116.087 2116.087 0 0 1-4.48 10.772l-3.73 8.981c-.041.1-.079.19-.121.279 0 .043-.038.08-.052.118L.68 22.978a1.466 1.466 0 0 0 .638 1.857c.21.115.445.175.684.176h12.375c.661 0 1.764.061 2.477.746l.661.648.131.128.08.075a.14.14 0 0 0 .038.038 1.668 1.668 0 0 0 1.407.473H21.895c2.477-.08 4.26-1.083 5.16-3.12 1.06-2.363 2.022-4.798 3.021-7.204a1.49 1.49 0 0 0-.469-1.635c-.3-.317-.61-.629-.915-.945-.305-.317-.323-.596.09-.686a5.186 5.186 0 0 0 2.33-1.024 5.24 5.24 0 0 0 1.572-2.015c.69-1.536 1.319-3.115 1.966-4.68.253-.515.084-1.115-.465-1.678Zm-4.953 1.23a13.474 13.474 0 0 1-1.234 2.694c-.345.466-.8.84-1.322 1.087a3.49 3.49 0 0 1-1.675.33h-3.19a.624.624 0 0 1-.511-.236.474.474 0 0 1-.104-.534l.939-2.207a.645.645 0 0 1 .032-.085.266.266 0 0 0 0-.308.356.356 0 0 0-.337-.127h-2.153a1.51 1.51 0 0 0-.951.215 1.53 1.53 0 0 0-.626.754c-.365.885-.733 1.766-1.102 2.642-1.235 2.962-2.47 5.923-3.706 8.882-.131.316-.094.472.216.77.31.298.53.534.784.808a.761.761 0 0 0 .605.28h1.116a.42.42 0 0 0 .47-.28c.792-1.914 1.594-3.819 2.382-5.728a.816.816 0 0 1 .85-.52h5.075a.658.658 0 0 1 .675.534.643.643 0 0 1-.06.298c-1.142 2.71-2.28 5.427-3.416 8.153-.24.582-.469 1.163-.727 1.74-.16.392-.502.392-.877 0-.765-.804-1.539-1.598-2.299-2.406a1.41 1.41 0 0 0-1.07-.496H9.794a1.454 1.454 0 0 1-1.14-.516c-.52-.558-1.06-1.101-1.595-1.65a1.03 1.03 0 0 1-.333-1.205C8.29 14.47 9.863 10.688 11.45 6.907a3.366 3.366 0 0 1 1.009-1.421c.454-.376 1-.625 1.58-.72a5.667 5.667 0 0 1 1.07-.09h13.42a1.02 1.02 0 0 1 .268 0c.286.085.544.44.436.685Z"/></svg>